<?xml version="1.0" encoding="UTF-8"?><svg version="1.1" width="97px" height="124px" viewBox="0 0 97.0 124.0" xmlns="http://www.w3.org/2000/svg" xmlns:xlink="http://www.w3.org/1999/xlink"><defs><clipPath id="i0"><path d="M8.9,0 C11.1,2.5 8.4,6.6 11.8,8.6 C9.9,10.7 9.2,13.1 9.3,15.9 C9.4,23.7 9.4,31.6 9.3,39.4 C9.3,42.4 10,45 12,47.2 C10.3,50 12.1,53.6 9.8,56.3 C5.70454545,55.2181818 3.69896694,52.1061983 1.75309917,48.9480748 L1.40991736,48.3906837 C0.952066116,47.6479339 0.490909091,46.9090909 0,46.2 L0,9.2 C0.646153846,8.46153846 1.21775148,7.64852071 1.77255348,6.81747838 L2.1405671,6.26140023 C3.85226824,3.65969757 5.52564103,1.00512821 8.9,0 Z"></path></clipPath><clipPath id="i1"><path d="M9.9,0 C10.1,3.3 9.7,6.8 10.9,10 C10.2,11.2 9.1,11.9 9.2,13.7 C9.5,19.3 9.4,24.9 9.3,30.5 C9.2,33.7 10.6,36.2 13,38.2 L13,47.4 C6.76363636,46.7763636 3.78152066,42.4222479 1.01298753,37.8733103 L0.674844177,37.3155642 C0.618595943,37.2225244 0.562384974,37.1294636 0.506185424,37.0364117 L0.168918407,36.4784493 C0.112661157,36.3855537 0.0563636364,36.2927273 0,36.2 L0,10.2 C0.725,9.25 1.35625,8.20625 1.9828125,7.1578125 L2.45324707,6.37199707 C4.18515625,3.49765625 6.05,0.75625 9.9,0 Z"></path></clipPath><clipPath id="i2"><path d="M20,0 C25.9,2.3 32.3,3.5 37,8.3 C36.5,10.3 35.8,12.2 36,14.4 C36.2,15.9 36.4,17.7 34.1,18 C28.4,12 21.1,9.8 13.1,9.3 C13.1,8.5 13,7.6 13.1,6.8 C13.9,2 11.8,0.4 7.1,0.9 C4.8,1.1 2.2,1.9 0,0 L20,0 Z"></path></clipPath><clipPath id="i3"><path d="M16,0 C17.61,1.45666667 19.5726667,1.32633333 21.4373704,1.09607778 L21.9212963,1.03472222 C22.3222222,0.983333333 22.7166667,0.933333333 23.1,0.9 C27.8,0.5 29.9,2 29.1,6.8 C29,7.6 29.1,8.4 29.1,9.3 C22.8,9.9 16.4,10 10.1,9.3 L10.099984,9.01507609 L10.0995674,8.46701275 C10.0886076,1.70615286 9.8,1.76582278 2.2,0.9 C1.4,0.9 0.7,0.3 0,0 L16,0 Z"></path></clipPath><clipPath id="i4"><path d="M6,0 C6.7,0.3 7.4,0.9 8.1,0.9 C15.7,1.76582278 15.9886076,1.70615286 15.9995674,8.46701275 L15.999984,9.01507609 C16,9.10882871 16,9.20379747 16,9.3 C10.7,9.9 5.3,10 0,9.3 L0,0 L6,0 Z"></path></clipPath><clipPath id="i5"><path d="M14,0 L14,9.3 C9.7,10.4 4.8,8.3 1,11.8 C-0.2,8.5 0.1,5.1 0,1.8 C0.6,0.5 2.5,1.6 3,0 L14,0 Z"></path></clipPath><clipPath id="i6"><path d="M19.1,0 L19.1,8.9 C14.5,10 12.7,12.9 12.8,17.6 C13,25.9 13,34.2 12.8,42.5 C12.7,50.9 8.7,56.2 1.1,58.9 C1.08461538,58.4076923 1.08579882,57.9153846 1.09299044,57.4238052 L1.10696404,56.6870733 L1.12203004,55.95198 C1.16094675,53.7497041 1.10769231,51.5769231 0,49.5 C2.5,47.4 3.1,44.8 3.2,41.6 C3.6,31.4 2,21.1 4.1,11 C4.5,9.3 3.3,9.1 2.1,8.9 L2.1,0 L19.1,0 Z"></path></clipPath><clipPath id="i7"><path d="M4.3,0 C23.5,13.9 22.6,45.1 2.6,57.9 C-0.5,55.4 3.1,51 0,48.5 C11.2,35.2 11.6,22.7 1.3,9.8 C3.6,9.5 3.4,7.7 3.3,6.1 C3.1,4 3.8,2 4.3,0 Z"></path></clipPath><clipPath id="i8"><path d="M24,0 L24,9 C16,8.9 8,9 0,9 L0,0.1 C8,0.1 16,0 24,0 Z"></path></clipPath><clipPath id="i9"><path d="M15.7,0 C18.8,2.5 15.2,6.9 18.3,9.4 C12.9,13.6 6.8,16 0,16.1 L0,7.1 C5.8,6 11,3.5 15.7,0 Z"></path></clipPath><clipPath id="i10"><path d="M2.2,0 C4.7,1.3 7.4,1.5 10.1,0.5 C11.8,3.5 11.2,6.7 11.2,9.9 C7.3,11.5 3.6,11.2 0,9.1 C1.15,7.8 1.275,6.225 1.325,4.625 L1.34325185,3.98425926 C1.38388889,2.59566667 1.46333333,1.21333333 2.2,0 Z"></path></clipPath><clipPath id="i11"><path d="M17.9,0.00484417823 C17.9,3.10484418 16.4,6.10484418 16.9,9.30484418 C15.9,9.40484418 14.9,9.40484418 14,9.70484418 C11.6,10.7048442 9.5,12.4048442 9.8,15.2048442 C10.0608696,17.4222355 11.4275992,17.3428404 12.8461083,17.1580372 L13.2721604,17.1016254 C13.8867675,17.0219047 14.4913043,16.9635398 15,17.1048442 C16.3,17.4048442 17.6,17.3048442 18.9,17.4048442 L18.9,26.3048442 C12.9,26.3048442 6.9,26.4048442 0.9,26.4048442 C0.6,23.1048442 1.6,19.8048442 0,16.7048442 C0.7,5.80484418 7,-0.195155822 17.9,0.00484417823 Z"></path></clipPath><clipPath id="i12"><path d="M15.2,5.62319661 C18.2,9.62319661 18.8,14.1231966 16.7,18.8231966 C14.5,23.6231966 10.7,26.2231966 5.5,26.8231966 C3.7,27.0231966 1.9,26.7231966 0,26.7231966 L0,17.8231966 C1,17.7231966 2,17.6231966 2.9,17.6231966 C5.6,17.5231966 8,16.9231966 8,13.6231966 C8,10.1231966 5.6,9.82319661 2.9,9.92319661 C1.9,9.92319661 0.9,9.82319661 0,9.72319661 C0.1,6.52319661 0.1,3.42319661 0.1,0.323196611 C6.1,-0.676803389 11.4,0.523196611 15.2,5.62319661 Z"></path></clipPath><clipPath id="i13"><path d="M16.1020408,0.338535324 L16.1020408,9.63853532 L0.102040816,9.63853532 C-0.397959184,6.43853532 1.10204082,3.43853532 1.10204082,0.338535324 C6.10204082,-0.161464676 11.1020408,-0.0614646757 16.1020408,0.338535324 Z"></path></clipPath><clipPath id="i14"><path d="M14,0 L14,8.9 L0,8.9 L0,0 L14,0 Z"></path></clipPath><clipPath id="i15"><path d="M13,0.239294298 L13,9.1392943 C9.6,9.5392943 6,8.6392943 2.9,10.7392943 C-0.5,8.7392943 2.2,4.5392943 0,2.1392943 C4,-0.860705702 8.5,0.139294298 13,0.239294298 Z"></path></clipPath><clipPath id="i16"><path d="M0,0 C3.4,0.4 6.7,0.7 10.1,0.2 C11.7,3.3 10.7,6.6 11,9.8 C7.3,9.8 3.6,10.6 0,9.2 L0,0 Z"></path></clipPath></defs><g transform="translate(0.0 65.8)"><g clip-path="url(#i0)"><polygon points="0,0 12,0 12,56.3 0,56.3 0,0" stroke="none" fill="#D6265E"></polygon></g></g><g transform="translate(0.0 1.8000000000000007)"><g clip-path="url(#i1)"><polygon points="0,0 13,0 13,47.4 0,47.4 0,0" stroke="none" fill="#D6265E"></polygon></g></g><g transform="translate(45.900000000000006 0.0)"><g clip-path="url(#i2)"><polygon points="0,0 37,0 37,18 0,18 0,0" stroke="none" fill="#EC864F"></polygon></g></g><g transform="translate(30.0 0.0)"><g clip-path="url(#i3)"><polygon points="0,0 29.266313,0 29.266313,9.78821903 0,9.78821903 0,0" stroke="none" fill="#E5694E"></polygon></g></g><g transform="translate(24.0 0.0)"><g clip-path="url(#i4)"><polygon points="0,0 16,0 16,9.78821903 0,9.78821903 0,0" stroke="none" fill="#DF4C59"></polygon></g></g><g transform="translate(10.0 0.0)"><g clip-path="url(#i5)"><polygon points="0,0 14,0 14,11.8 0,11.8 0,0" stroke="none" fill="#D3375B"></polygon></g></g><g transform="translate(19.900000000000006 64.0)"><g clip-path="url(#i6)"><polygon points="0,0 19.1,0 19.1,58.9 0,58.9 0,0" stroke="none" fill="#DF4C59"></polygon></g></g><g transform="translate(78.70000000000002 8.200000000000003)"><g clip-path="url(#i7)"><polygon points="0,0 18.1661625,0 18.1661625,57.9 0,57.9 0,0" stroke="none" fill="#F3A849"></polygon></g></g><g transform="translate(39.0 63.900000000000006)"><g clip-path="url(#i8)"><polygon points="0,0 24,0 24,9 0,9 0,0" stroke="none" fill="#E5694E"></polygon></g></g><g transform="translate(63.00000000000001 56.7)"><g clip-path="url(#i9)"><polygon points="0,0 18.3,0 18.3,16.1 0,16.1 0,0" stroke="none" fill="#EC864F"></polygon></g></g><g transform="translate(9.8 113.0)"><g clip-path="url(#i10)"><polygon points="0,0 11.3027348,0 11.3027348,10.9181178 0,10.9181178 0,0" stroke="none" fill="#D3375B"></polygon></g></g><g transform="translate(23.099999999999998 23.495155821772762)"><g clip-path="url(#i11)"><polygon points="0,3.61799933e-15 18.9,3.61799933e-15 18.9,26.4048442 0,26.4048442 0,3.61799933e-15" stroke="none" fill="#DF4C59"></polygon></g></g><g transform="translate(55.89999999999999 23.176803388838685)"><g clip-path="url(#i12)"><polygon points="0,6.9419412e-16 17.9432419,6.9419412e-16 17.9432419,26.8919466 0,26.8919466 0,6.9419412e-16" stroke="none" fill="#EC864F"></polygon></g></g><g transform="translate(39.897959183673464 23.16146467568727)"><g clip-path="url(#i13)"><polygon points="-1.88171474e-15,8.79728793e-16 16.1020408,8.79728793e-16 16.1020408,9.63853532 -1.88171474e-15,9.63853532 -1.88171474e-15,8.79728793e-16" stroke="none" fill="#E5694E"></polygon></g></g><g transform="translate(42.0 40.8)"><g clip-path="url(#i14)"><polygon points="0,0 14,0 14,8.9 0,8.9 0,0" stroke="none" fill="#E5694E"></polygon></g></g><g transform="translate(9.0 63.760705701571936)"><g clip-path="url(#i15)"><polygon points="0,1.10911986e-15 13,1.10911986e-15 13,10.7392943 0,10.7392943 0,1.10911986e-15" stroke="none" fill="#D3375B"></polygon></g></g><g transform="translate(13.0 40.0)"><g clip-path="url(#i16)"><polygon points="0,0 11.0381956,0 11.0381956,10.0275556 0,10.0275556 0,0" stroke="none" fill="#D3375B"></polygon></g></g></svg>