<?xml version="1.0" encoding="utf-8"?>
<!-- Generator: Adobe Illustrator 25.4.1, SVG Export Plug-In . SVG Version: 6.00 Build 0)  -->
<svg version="1.1" id="Layer_1" xmlns="http://www.w3.org/2000/svg" xmlns:xlink="http://www.w3.org/1999/xlink" x="0px" y="0px"
	 viewBox="0 0 433.6 123.9" enable-background="new 0 0 433.6 123.9" xml:space="preserve">
<g>
	<path fill="#D6265E" d="M0,75c2.8-3.2,4.2-7.8,8.9-9.2c2.2,2.5-0.5,6.6,2.9,8.6c-1.9,2.1-2.6,4.5-2.5,7.3c0.1,7.8,0.1,15.7,0,23.5
		c0,3,0.7,5.6,2.7,7.8c-1.7,2.8,0.1,6.4-2.2,9.1c-5.3-1.4-7.1-6.2-9.8-10.1C0,99.7,0,87.3,0,75z"/>
	<path fill="#D6265E" d="M10.9,11.8c-0.7,1.2-1.8,1.9-1.7,3.7c0.3,5.6,0.2,11.2,0.1,16.8C9.2,35.5,10.6,38,13,40c0,3.1,0,6.1,0,9.2
		C6,48.5,3.1,43.1,0,38c0-8.7,0-17.3,0-26C2.9,8.2,4.3,2.9,9.9,1.8C10.1,5.1,9.7,8.6,10.9,11.8z"/>
	<path fill="#EC864F" d="M80,18c-5.7-6-13-8.2-21-8.7c0-0.8-0.1-1.7,0-2.5c0.8-4.8-1.3-6.4-6-5.9c-2.3,0.2-4.9,1-7.1-0.9
		c6.7,0,13.3,0,20,0c5.9,2.3,12.3,3.5,17,8.3c-0.5,2-1.2,3.9-1,6.1C82.1,15.9,82.3,17.7,80,18z"/>
	<path fill="#E5694E" d="M46,0c2.1,1.9,4.8,1.1,7.1,0.9c4.7-0.4,6.8,1.1,6,5.9c-0.1,0.8,0,1.6,0,2.5c-6.3,0.6-12.7,0.7-19,0
		c0-7.6,0-7.5-7.9-8.4C31.4,0.9,30.7,0.3,30,0C35.3,0,40.7,0,46,0z"/>
	<path fill="#DF4C5A" d="M30,0c0.7,0.3,1.4,0.9,2.1,0.9C40,1.8,40,1.7,40,9.3c-5.3,0.6-10.7,0.7-16,0c0-3.1,0-6.2,0-9.3
		C26,0,28,0,30,0z"/>
	<path fill="#D3375B" d="M24,0c0,3.1,0,6.2,0,9.3c-4.3,1.1-9.2-1-13,2.5c-1.2-3.3-0.9-6.7-1-10C10.6,0.5,12.5,1.6,13,0
		C16.7,0,20.3,0,24,0z"/>
	<path fill="#D3365A" d="M401.7,68.3c2.5-6.8,4.8-12.8,6.9-18.9c1.1-2.9,2.5-5.4,5.5-6.7c5.4-2.3,10.4-0.3,11.8,5.4
		c2.7,10.8,4.9,21.7,7.4,32.5c0.9,3.8-0.7,6.2-4.3,7.1c-3.5,0.9-6.5-0.2-7.6-3.8c-1.5-4.7-2.3-9.7-3.4-14.5c-0.5-2.4-1-4.8-2.6-7.3
		c-1.7,4.5-3.5,9-5.2,13.5c-0.8,2.2-1.5,4.4-2.4,6.5c-1.2,2.7-2.5,5.7-6.2,5.7c-3.6,0-5-2.9-6.1-5.7c-2.6-6.8-5.1-13.7-8.2-21.7
		c-1.6,7.3-2.9,13.4-4.3,19.5c-0.4,1.6-0.8,3.2-1.5,4.7c-1.6,3.2-4.4,3.9-7.6,3c-3.1-0.9-4.7-3.1-4-6.4c2.5-11.3,5-22.7,7.7-34
		c0.8-3.4,3.4-5.2,7-5.3c4.3-0.2,7.5,1.6,9.1,5.6c2.2,5.4,4.1,10.9,6.1,16.3C400.4,65.1,400.9,66.3,401.7,68.3z"/>
	<path fill="#D3365A" d="M286.9,85.2c0,4.4,0.2,8.4-0.1,12.4c-0.3,3.9-1,7.9-6.1,8.2c-4,0.3-6.6-2.8-6.6-8.3
		c-0.1-15.8-0.1-31.7,0-47.5c0-3.1,0.8-6.1,3.9-7.6c2.9-1.4,5.6-0.5,7.6,1.9c0.9,1,1.5,1.5,2.8,0.6c6.7-4.7,13.6-4.1,20,0.3
		c7.4,5.1,9.8,12.9,9.2,21.5c-0.8,11.8-8.1,20.1-18.1,21.5C295.8,88.8,293.6,88.3,286.9,85.2z M286.9,64.6
		c-0.2,7.4,2.9,11.5,8.6,11.5c5.3,0,8.5-4,8.7-10.6c0.1-6.7-3.3-11.3-8.5-11.4C290.3,54.1,287.1,57.9,286.9,64.6z"/>
	<path fill="#D3375B" d="M365.7,64.7c0,5,0.2,10-0.1,15c-0.1,3.2-0.8,6.4-4.3,7.8c-3.1,1.2-5.5-0.1-7.4-2.5c-0.8-1-1.3-0.9-2.5-0.4
		c-14.4,6.6-26.8,0.1-29.2-15.5c-1.4-9.1,1.1-17.2,8.4-23.3c5.6-4.8,13.8-5.5,19.9-1.5c1.6,1.1,2.4,1.3,4.1-0.1
		c5-4.1,9.9-2.3,10.7,4.1c0.6,5.4,0.1,11,0.1,16.4C365.5,64.7,365.6,64.7,365.7,64.7z M352.3,64.8c0-6.4-3.1-10.5-8.1-10.6
		c-4.9-0.1-8.5,4.2-8.6,10.2c-0.1,6.5,3.2,10.7,8.5,10.7C349.2,75.1,352.3,71.3,352.3,64.8z"/>
	<path fill="#D3365A" d="M153,65.1c0,13.7-9.5,23.6-22.5,23.5c-12.6-0.2-22-10.2-22-23.6c0-13.7,9.4-23.7,22.3-23.7
		C143.8,41.3,153,51.2,153,65.1z M139.7,64.7c-0.4-2.3-0.5-4.8-1.8-7c-1.6-2.7-3.9-4.6-7.2-4.5c-3.2,0.1-5.7,1.9-7,4.8
		c-2.3,4.8-2.2,9.7,0.5,14.3c3.2,5.5,10.1,5.5,13.5,0.1C139,70.2,139.3,67.6,139.7,64.7z"/>
	<path fill="#D3375B" d="M220.4,88.1c-12.9,0-21.8-8.9-22.2-22.4c-0.4-13.5,8.3-23.4,21.3-23.9c3.8-0.2,7.6,0.1,11.2,1.7
		c4.1,1.9,5.9,5.4,4.3,8.8c-1.8,4-5.1,3.5-8.5,2.5c-10-3-15.3,1.2-14.6,11.4c0.4,6.2,3.9,9.4,10.1,9.1c2-0.1,3.9-0.7,5.8-1.1
		c2.8-0.5,5.5-0.7,6.9,2.4c1.4,3.1,0.6,5.8-2.1,8C229.8,86.8,225.5,88.1,220.4,88.1z"/>
	<path fill="#D3375B" d="M179.1,88.1c-12.9,0-21.8-9-22.2-21.8c-0.4-13.7,7.6-23.5,20.2-24.4c4.2-0.3,8.3-0.2,12.2,1.7
		c4.2,2,6,5.4,4.4,8.8c-1.8,3.9-5.1,3.5-8.5,2.5c-10.4-3-16.3,2.3-14.4,12.9c0.9,5,3.8,7.6,8.9,7.7c1.6,0,3.4-0.1,4.9-0.5
		c3.7-1.1,7.3-2.1,9.2,2.7c1.3,3.5-1,7-5.9,9C184.9,87.7,181.9,88.3,179.1,88.1z"/>
	<path fill="#D3365A" d="M242,64.8c0-4.8-0.1-9.6,0-14.5c0.2-6.2,2.5-8.3,8.6-8.3c4.3,0,8.7-0.1,13,0.1c3.6,0.1,6.7,1.2,6.7,5.7
		c-0.1,4.2-3,5.1-6.4,5.4c-8.8,0.7-8.8,0.7-8.8,9.5c0,5.8,0.1,11.6-0.1,17.5c-0.1,3.9-1.4,7.3-6,7.8c-3.7,0.4-6.6-2.7-6.8-7.6
		C241.9,75.1,242.1,69.9,242,64.8C242.1,64.8,242,64.8,242,64.8z"/>
	<path fill="#DF4C5A" d="M22,64c5.7,0,11.3,0,17,0c0,3,0,5.9,0,8.9c-4.6,1.1-6.4,4-6.3,8.7c0.2,8.3,0.2,16.6,0,24.9
		c-0.1,8.4-4.1,13.7-11.7,16.4c-0.1-3.2,0.5-6.4-1.1-9.4c2.5-2.1,3.1-4.7,3.2-7.9c0.4-10.2-1.2-20.5,0.9-30.6c0.4-1.7-0.8-1.9-2-2.1
		C22,69.9,22,67,22,64z"/>
	<path fill="#F3A849" d="M80,18c2.3-0.3,2.1-2.1,2-3.7c-0.2-2.1,0.5-4.1,1-6.1c19.2,13.9,18.3,45.1-1.7,57.9
		c-3.1-2.5,0.5-6.9-2.6-9.4C89.9,43.4,90.3,30.9,80,18z"/>
	<path fill="#E5694E" d="M39,72.9c0-3,0-5.9,0-8.9c8,0,16-0.1,24-0.1c0,3,0,6,0,9C55,72.8,47,72.9,39,72.9z"/>
	<path fill="#EC864F" d="M63,72.8c0-3,0-6,0-9c5.8-1.1,11-3.6,15.7-7.1c3.1,2.5-0.5,6.9,2.6,9.4C75.9,70.3,69.8,72.7,63,72.8z"/>
	<path fill="#D3375B" d="M19.9,113.5c1.7,3,1.1,6.2,1.1,9.4c-3.9,1.6-7.6,1.3-11.2-0.8c2.3-2.6,0.5-6.3,2.2-9.1
		C14.5,114.3,17.2,114.5,19.9,113.5z"/>
	<path fill="#DF4C5A" d="M23.1,40.2c0.7-10.9,7-16.9,17.9-16.7c0,3.1-1.5,6.1-1,9.3c-1,0.1-2,0.1-2.9,0.4c-2.4,1-4.5,2.7-4.2,5.5
		c0.4,3.4,3.4,1.4,5.2,1.9c1.3,0.3,2.6,0.2,3.9,0.3c0,3,0,5.9,0,8.9c-6,0-12,0.1-18,0.1C23.7,46.6,24.7,43.3,23.1,40.2z"/>
	<path fill="#EC864F" d="M56,23.5c6-1,11.3,0.2,15.1,5.3c3,4,3.6,8.5,1.5,13.2c-2.2,4.8-6,7.4-11.2,8c-1.8,0.2-3.6-0.1-5.5-0.1
		c0-3,0-5.9,0-8.9c1-0.1,2-0.2,2.9-0.2c2.7-0.1,5.1-0.7,5.1-4c0-3.5-2.4-3.8-5.1-3.7c-1,0-2-0.1-2.9-0.2C56,29.7,56,26.6,56,23.5z"
		/>
	<path fill="#E5694E" d="M56,23.5c0,3.1,0,6.2,0,9.3c-5.3,0-10.7,0-16,0c-0.5-3.2,1-6.2,1-9.3C46,23,51,23.1,56,23.5z"/>
	<path fill="#E5694E" d="M56,40.8c0,3,0,5.9,0,8.9c-4.7,0-9.3,0-14,0c0-3,0-5.9,0-8.9C46.7,40.8,51.4,40.8,56,40.8z"/>
	<path fill="#D3375B" d="M22,64c0,3,0,5.9,0,8.9c-3.4,0.4-7-0.5-10.1,1.6c-3.4-2-0.7-6.2-2.9-8.6C13,62.9,17.5,63.9,22,64z"/>
	<path fill="#D3375B" d="M23.1,40.2c1.6,3.1,0.6,6.4,0.9,9.6c-3.7,0-7.4,0.8-11-0.6c0-3.1,0-6.1,0-9.2
		C16.4,40.4,19.7,40.7,23.1,40.2z"/>
</g>
</svg>
